<?xml version="1.0" encoding="utf-8"?>
<!-- Generator: Adobe Illustrator 24.0.1, SVG Export Plug-In . SVG Version: 6.00 Build 0)  -->
<svg version="1.1" id="图层_1" xmlns="http://www.w3.org/2000/svg" xmlns:xlink="http://www.w3.org/1999/xlink" x="0px" y="0px"
	 viewBox="0 0 360.3 84.9" style="enable-background:new 0 0 360.3 84.9;" xml:space="preserve">
<g id="_x23_000000ff">
	<path d="M226,1.1c7.6-1.9,16.9-1.7,22.8,4.2c4.8,4.9,5,12.3,4.9,18.8c-3.8,0-7.5,0-11.3,0c0-3.8,0.6-8.3-2.4-11.1
		c-4.4-4-13.7-2.4-14.8,4.1c-0.3,5-1.4,11.3,3,14.9c6.4,4.9,15.1,6.1,21,11.8c3.7,3.8,5,9.2,4.9,14.4c0,6.8,0.6,14.5-3.9,20.2
		c-3.8,5-10.3,6.7-16.3,6.5c-5.9,0.1-12.5-1.6-16.3-6.4c-3.9-4.8-4.1-11.4-4-17.3c3.8,0,7.5,0,11.3,0c0,3.4-0.5,7.3,1.9,10.2
		c4.5,5,15.3,3.4,16-4.1c-0.1-5.6,1.8-12.7-3.2-16.7c-6.6-5-15.7-6.3-21.3-12.8c-5.4-6.1-4.9-15-4.2-22.6
		C214.9,8.5,219.6,2.7,226,1.1z"/>
	<path d="M0,0.8c7,0.1,14-0.1,20.9,0.1C26.4,1,32.4,2.7,35.5,7.5c3.9,5.8,2.6,13,2.7,19.6c0.1,6.1-3.6,12.2-9.6,13.7
		c6.5,1.3,11,7.7,10.7,14.2C39,61.2,40,67.6,38.4,73.7c-1.8,6.2-8.1,10-14.3,10.3C16.1,84.3,8,84,0,84.1C0,56.3,0,28.6,0,0.8
		 M11.3,11.3c0,8.1,0,16.2,0,24.2c4.1-0.2,8.5,0.8,12.4-1c4.2-2.6,3.5-8.2,3.7-12.5c-0.1-3.5,0.2-8.2-3.5-9.9
		C19.8,10.7,15.4,11.5,11.3,11.3 M11.3,46.1c0,9.2,0,18.3,0,27.5c4.6-0.3,9.7,0.9,14-1.2c3.6-2.1,2.9-6.8,3-10.3
		c-0.2-4.6,0.9-10.1-2.6-13.8C22,44.5,16,46.6,11.3,46.1z"/>
	<path d="M49.5,0.8c3.8,0,7.5,0,11.3,0c0,22.4,0,44.9,0,67.3c0,1.7,0.2,3.5,1.6,4.7c1.8,1.1,3.9,0.8,5.9,0.9c0,3.5,0,7,0,10.4
		c-5,0.1-10.9,0.3-14.6-3.7c-4.3-4.2-4.2-10.7-4.2-16.3C49.5,43,49.5,21.9,49.5,0.8z"/>
	<path d="M168,0.8c3.8,0,7.5,0,11.3,0c0,17.2,0,34.5,0,51.7c5.9-9.3,11.6-18.7,17.5-28c3.9,0,7.8,0,11.7,0
		c-5.1,7.9-10.5,15.6-15.6,23.4c5.9,12.1,12.1,24,17.9,36.1c-4.1,0-8.2,0.1-12.3-0.1c-3.9-8.9-8-17.8-12-26.6
		c-2.3,3.7-5.1,7.1-7.1,11c-0.4,5.2,0,10.5-0.1,15.7c-3.8,0-7.5,0-11.3,0C168,56.3,168,28.6,168,0.8z"/>
	<path d="M314.6,4.6c4.7-4.6,11.9-3.7,17.9-3.8c0,3.5,0,7,0,10.5c-3,0.2-6.5-0.8-9.2,1.1c-2.6,3.5-1.2,8.2-1.5,12.2
		c3.6,0,7.2,0,10.7,0c0,3.5,0,7,0,10.5c-3.6,0-7.2,0-10.8,0c0,16.3,0,32.7,0,49c-3.7,0-7.3,0-11,0c0-16.3,0-32.7,0-49
		c-1.9,0-3.8,0-5.8,0c0-3.5,0-7,0-10.5c1.9,0,3.8,0,5.8,0C310.9,17.9,309.5,10,314.6,4.6z"/>
	<path d="M340.5,7.3c3.7,0,7.3,0,11,0c0,5.7,0,11.5,0,17.2c2.9,0,5.8,0,8.8,0c0,3.5,0,7,0,10.5c-2.9,0-5.8,0-8.8,0
		c0,10.7,0,21.3,0,32c0,2.2,0.1,5,2.3,6.3c2,0.8,4.3,0.4,6.5,0.5c0,3.5,0,7,0,10.5c-4.8-0.1-10.1,0.6-14.3-2.1
		c-4.2-2.9-5.4-8.4-5.4-13.2c0-11.3,0-22.6,0-33.9c-2,0-4-0.1-6-0.1c0-3.5,0-7,0-10.5c2,0,4,0,6,0C340.5,18.8,340.5,13.1,340.5,7.3z
		"/>
	<path d="M80.2,29.3c3.4-4.5,9.4-6,14.8-5.8c4.8,0.1,9.9,1.6,13.1,5.4c2.6,3.1,3.7,7.2,3.6,11.1c0,14.7,0,29.4,0,44
		c-3.6,0-7.2,0-10.8,0c0-1.6,0-3.2,0.1-4.7c-1.6,2.5-3.9,4.7-6.9,5.2c-5.3,1-11.8,0.3-15.3-4.3c-3.5-4.6-3.4-10.7-3-16.2
		c0.4-5.5,3.1-11.3,8.2-13.8c5.2-2.8,11.2-1.8,16.9-1.9c0-3.4,0.3-6.8-0.3-10.2c-1-4.7-7.6-6.5-11.1-3.4c-1.6,1.6-1.8,3.9-2.1,6
		c-3.6,0-7.3,0-10.9,0C77,36.8,77.5,32.5,80.2,29.3 M90.7,58.8c-4.1,1.8-4.8,7.1-4.3,11.1c0.9,6.7,12,6.6,13.9,0.6
		c1.2-4,0.5-8.3,0.6-12.4C97.6,58.2,94,57.6,90.7,58.8z"/>
	<path d="M132.7,25c6.9-2.5,15.7-2.1,21.3,3c4.4,4.2,5.3,10.5,5,16.3c-3.6,0-7.1,0-10.6,0c-0.4-2.7-0.2-5.6-1.9-7.8
		c-2.6-3.8-9.3-3.4-11.4,0.8c-1.6,3-1,6.6-1.1,9.8c0.2,7.4-0.3,14.8,0.3,22.2c0.8,5.5,8.7,7.1,12.1,3.1c1.9-2,1.7-5,2-7.6
		c3.6,0,7.3,0,10.9,0c-0.1,4.4-0.3,9.1-2.8,12.9c-3,4.9-8.9,7.1-14.5,7.2c-5.1,0.3-10.6-0.9-14.4-4.5c-3.2-3.2-4.7-7.8-4.6-12.2
		c0-9.4-0.1-18.8,0-28.1C123.1,33.7,126.7,27.3,132.7,25z"/>
	<path d="M274.3,24.6c6.5-1.9,14.6-1.5,19.7,3.4c3.1,3.2,4.4,7.7,4.3,12.1c-0.1,10,0.1,20.1-0.1,30.1c-0.2,5.8-3.6,11.7-9.3,13.5
		c-7.6,2.6-17.9,1.5-22.4-6.1c-3.8-6.9-2-15.1-2.4-22.5c0.3-7-0.8-14.2,1-21.1C266.2,29.5,269.9,25.9,274.3,24.6 M279.4,34.6
		c-2.8,0.7-4.3,3.7-4.1,6.4c0,8.3,0,16.7,0,25c0,2.4,0.1,5.2,2.1,6.8c3.3,2.8,9.4,0.9,9.7-3.7c0.4-8,0-16,0.2-24
		c-0.1-2.5,0.3-5.1-0.7-7.5C285.5,34.9,282,33.7,279.4,34.6z"/>
</g>
</svg>
